<svg version="1.1" xmlns="http://www.w3.org/2000/svg" viewBox="80 60 400 250">
  <style type="text/css">
    .st1{fill:#333333;}
    .st2{fill:#C10505;}
  </style>
  <path class="st2" d="M90.9,295.9h63.7c52.8-126.7,167.9-173.8,167.9-173.8c58.2-22.7,120.9-21.4,145.3-19.4v-9.5
    C184,65.2,90.7,296.2,90.9,295.9z"/>
  <path class="st1" d="M390.1,118.5c25.8,6.9,44.8,30.4,44.8,58.4c0,33.4-27.1,60.4-60.4,60.4S314,210.3,314,176.9
    c0-1.9,0.1-3.8,0.3-5.7l0,0c0,0-30.5,34.2-42.8,124.7l46.4,0c86.3,0,142.1-65.4,149.5-147.6l0.4-31.9
    C453,115.4,421,114.2,390.1,118.5z"/>
  <path class="st1" d="M180.4,295.9h65.4c30.8-124.3,89.2-164.8,90.1-165.5C225.2,166.1,180.4,295.9,180.4,295.9z"/>
</svg>
